<svg width="92" height="92" viewBox="0 0 92 92" fill="none" xmlns="http://www.w3.org/2000/svg">
<g clip-path="url(#clip0)">
<path d="M85.9023 88.4601H83.3445V8.14413C83.3445 7.29632 82.6572 6.60946 81.8098 6.60946H53.162C52.3144 6.60946 51.6273 7.29632 51.6273 8.14413V14.7944H48.558V8.14413C48.558 7.29632 47.8708 6.60946 47.0234 6.60946H40.3729V2.0053C40.3729 1.1575 39.6856 0.470642 38.8382 0.470642C37.9907 0.470642 37.3035 1.1575 37.3035 2.0053V6.60946H30.6532C29.8056 6.60946 29.1186 7.29632 29.1186 8.14413V14.7944H24.5144C23.6668 14.7944 22.9797 15.4813 22.9797 16.3291V29.1182H10.1906C9.34296 29.1182 8.65593 29.8051 8.65593 30.6529V88.46H6.09774C5.25011 88.46 4.56308 89.1468 4.56308 89.9946C4.56308 90.8424 5.25029 91.5295 6.09774 91.5295H85.9023C86.7499 91.5295 87.437 90.8426 87.437 89.9948C87.437 89.147 86.7497 88.4601 85.9023 88.4601ZM32.1877 9.67879H45.4883V14.7944H32.1877V9.67879ZM27.072 88.4601H26.0489V85.9023C26.0489 85.0545 25.3617 84.3677 24.5142 84.3677C23.6668 84.3677 22.9796 85.0545 22.9796 85.9023V88.4601H21.9564V83.3445H27.072V88.4601ZM37.3034 49.0694V51.7095V88.4601H30.1414V81.8098C30.1414 80.962 29.4542 80.2752 28.6067 80.2752H20.4217C19.5741 80.2752 18.8871 80.962 18.8871 81.8098V88.4601H11.7251V32.1877H37.3034V49.0694ZM38.838 29.1184H26.0489V17.8639H51.6272V47.5347H40.3729V42.4191H44.977C45.8247 42.4191 46.5117 41.7322 46.5117 40.8844C46.5117 40.0366 45.8245 39.3497 44.977 39.3497H40.3729V34.2341H44.977C45.8247 34.2341 46.5117 33.5472 46.5117 32.6994C46.5117 31.8516 45.8245 31.1648 44.977 31.1648H40.3729V30.6533C40.3729 29.8053 39.6856 29.1184 38.838 29.1184ZM65.9511 88.4601H40.3729V51.7095V50.6042H65.9511V88.4601ZM80.275 88.4601H69.0205V49.0694V47.023C69.0205 46.1752 68.3333 45.4884 67.4858 45.4884C66.6384 45.4884 65.9511 46.1752 65.9511 47.023V47.5345H62.8818V47.023C62.8818 46.1752 62.1946 45.4884 61.3472 45.4884C60.4997 45.4884 59.8125 46.1752 59.8125 47.023V47.5345H54.6968V16.3293V9.67879H80.2751V88.4601H80.275Z" fill="black"/>
<path d="M47.0232 85.391C47.8708 85.391 48.5578 84.7038 48.5578 83.8563V55.2087C48.5578 54.3609 47.8706 53.6741 47.0232 53.6741C46.1757 53.6741 45.4885 54.3609 45.4885 55.2087V83.8565C45.4885 84.704 46.1755 85.391 47.0232 85.391Z" fill="black"/>
<path d="M53.162 85.391C54.0096 85.391 54.6967 84.7038 54.6967 83.8563V55.2087C54.6967 54.3609 54.0095 53.6741 53.162 53.6741C52.3146 53.6741 51.6273 54.3609 51.6273 55.2087V83.8565C51.6272 84.704 52.3144 85.391 53.162 85.391Z" fill="black"/>
<path d="M59.3006 85.391C60.1483 85.391 60.8353 84.7038 60.8353 83.8563V55.2087C60.8353 54.3609 60.1481 53.6741 59.3006 53.6741C58.4532 53.6741 57.766 54.3609 57.766 55.2087V83.8565C57.766 84.704 58.4532 85.391 59.3006 85.391Z" fill="black"/>
<path d="M61.347 19.9101C62.1946 19.9101 62.8816 19.2232 62.8816 18.3754V16.3293C62.8816 15.4815 62.1944 14.7946 61.347 14.7946C60.4995 14.7946 59.8123 15.4815 59.8123 16.3293V18.3756C59.8123 19.2232 60.4993 19.9101 61.347 19.9101Z" fill="black"/>
<path d="M67.4858 19.9101C68.3334 19.9101 69.0205 19.2232 69.0205 18.3754V16.3293C69.0205 15.4815 68.3333 14.7946 67.4858 14.7946C66.6384 14.7946 65.9511 15.4815 65.9511 16.3293V18.3756C65.9511 19.2232 66.6382 19.9101 67.4858 19.9101Z" fill="black"/>
<path d="M73.6246 19.9101C74.4722 19.9101 75.1593 19.2232 75.1593 18.3754V16.3293C75.1593 15.4815 74.4721 14.7946 73.6246 14.7946C72.7772 14.7946 72.09 15.4815 72.09 16.3293V18.3756C72.09 19.2232 72.777 19.9101 73.6246 19.9101Z" fill="black"/>
<path d="M61.347 30.1414C62.1946 30.1414 62.8816 29.4546 62.8816 28.6067V26.5604C62.8816 25.7126 62.1944 25.0258 61.347 25.0258C60.4995 25.0258 59.8123 25.7126 59.8123 26.5604V28.6067C59.8123 29.4546 60.4993 30.1414 61.347 30.1414Z" fill="black"/>
<path d="M67.4858 30.1414C68.3334 30.1414 69.0205 29.4546 69.0205 28.6067V26.5604C69.0205 25.7126 68.3333 25.0258 67.4858 25.0258C66.6384 25.0258 65.9511 25.7126 65.9511 26.5604V28.6067C65.9511 29.4546 66.6382 30.1414 67.4858 30.1414Z" fill="black"/>
<path d="M73.6246 30.1414C74.4722 30.1414 75.1593 29.4546 75.1593 28.6067V26.5604C75.1593 25.7126 74.4721 25.0258 73.6246 25.0258C72.7772 25.0258 72.09 25.7126 72.09 26.5604V28.6067C72.09 29.4546 72.777 30.1414 73.6246 30.1414Z" fill="black"/>
<path d="M61.347 40.3729C62.1946 40.3729 62.8816 39.686 62.8816 38.8382V36.7919C62.8816 35.9441 62.1944 35.2572 61.347 35.2572C60.4995 35.2572 59.8123 35.9441 59.8123 36.7919V38.8382C59.8123 39.6859 60.4993 40.3729 61.347 40.3729Z" fill="black"/>
<path d="M67.4858 40.3729C68.3334 40.3729 69.0205 39.686 69.0205 38.8382V36.7919C69.0205 35.9441 68.3333 35.2572 67.4858 35.2572C66.6384 35.2572 65.9511 35.9441 65.9511 36.7919V38.8382C65.9511 39.6859 66.6382 40.3729 67.4858 40.3729Z" fill="black"/>
<path d="M73.6246 40.3729C74.4722 40.3729 75.1593 39.686 75.1593 38.8382V36.7919C75.1593 35.9441 74.4721 35.2572 73.6246 35.2572C72.7772 35.2572 72.09 35.9441 72.09 36.7919V38.8382C72.09 39.6859 72.777 40.3729 73.6246 40.3729Z" fill="black"/>
<path d="M18.3754 44.4654C19.223 44.4654 19.9101 43.7785 19.9101 42.9307V40.8844C19.9101 40.0366 19.2228 39.3497 18.3754 39.3497C17.5279 39.3497 16.8407 40.0366 16.8407 40.8844V42.9307C16.8407 43.7784 17.5279 44.4654 18.3754 44.4654Z" fill="black"/>
<path d="M24.5142 44.4654C25.3618 44.4654 26.0489 43.7785 26.0489 42.9307V40.8844C26.0489 40.0366 25.3617 39.3497 24.5142 39.3497C23.6668 39.3497 22.9796 40.0366 22.9796 40.8844V42.9307C22.9796 43.7784 23.6666 44.4654 24.5142 44.4654Z" fill="black"/>
<path d="M30.653 44.4654C31.5007 44.4654 32.1877 43.7785 32.1877 42.9307V40.8844C32.1877 40.0366 31.5005 39.3497 30.653 39.3497C29.8056 39.3497 29.1184 40.0366 29.1184 40.8844V42.9307C29.1184 43.7784 29.8054 44.4654 30.653 44.4654Z" fill="black"/>
<path d="M18.3754 54.6967C19.223 54.6967 19.9101 54.0099 19.9101 53.162V51.1157C19.9101 50.2679 19.2228 49.5811 18.3754 49.5811C17.5279 49.5811 16.8407 50.2679 16.8407 51.1157V53.162C16.8407 54.0097 17.5279 54.6967 18.3754 54.6967Z" fill="black"/>
<path d="M24.5142 54.6967C25.3618 54.6967 26.0489 54.0099 26.0489 53.162V51.1157C26.0489 50.2679 25.3617 49.5811 24.5142 49.5811C23.6668 49.5811 22.9796 50.2679 22.9796 51.1157V53.162C22.9796 54.0097 23.6666 54.6967 24.5142 54.6967Z" fill="black"/>
<path d="M30.653 54.6967C31.5007 54.6967 32.1877 54.0099 32.1877 53.162V51.1157C32.1877 50.2679 31.5005 49.5811 30.653 49.5811C29.8056 49.5811 29.1184 50.2679 29.1184 51.1157V53.162C29.1184 54.0097 29.8054 54.6967 30.653 54.6967Z" fill="black"/>
<path d="M18.3754 64.928C19.223 64.928 19.9101 64.2412 19.9101 63.3934V61.347C19.9101 60.4992 19.2228 59.8124 18.3754 59.8124C17.5279 59.8124 16.8407 60.4992 16.8407 61.347V63.3934C16.8407 64.2412 17.5279 64.928 18.3754 64.928Z" fill="black"/>
<path d="M24.5142 64.928C25.3618 64.928 26.0489 64.2412 26.0489 63.3934V61.347C26.0489 60.4992 25.3617 59.8124 24.5142 59.8124C23.6668 59.8124 22.9796 60.4992 22.9796 61.347V63.3934C22.9796 64.2412 23.6666 64.928 24.5142 64.928Z" fill="black"/>
<path d="M30.653 64.928C31.5007 64.928 32.1877 64.2412 32.1877 63.3934V61.347C32.1877 60.4992 31.5005 59.8124 30.653 59.8124C29.8056 59.8124 29.1184 60.4992 29.1184 61.347V63.3934C29.1184 64.2412 29.8054 64.928 30.653 64.928Z" fill="black"/>
<path d="M18.3754 75.1593C19.223 75.1593 19.9101 74.4725 19.9101 73.6247V71.5783C19.9101 70.7305 19.2228 70.0437 18.3754 70.0437C17.5279 70.0437 16.8407 70.7305 16.8407 71.5783V73.6247C16.8407 74.4725 17.5279 75.1593 18.3754 75.1593Z" fill="black"/>
<path d="M24.5142 75.1593C25.3618 75.1593 26.0489 74.4725 26.0489 73.6247V71.5783C26.0489 70.7305 25.3617 70.0437 24.5142 70.0437C23.6668 70.0437 22.9796 70.7305 22.9796 71.5783V73.6247C22.9796 74.4725 23.6666 75.1593 24.5142 75.1593Z" fill="black"/>
<path d="M30.653 75.1593C31.5007 75.1593 32.1877 74.4725 32.1877 73.6247V71.5783C32.1877 70.7305 31.5005 70.0437 30.653 70.0437C29.8056 70.0437 29.1184 70.7305 29.1184 71.5783V73.6247C29.1184 74.4725 29.8054 75.1593 30.653 75.1593Z" fill="black"/>
<path d="M73.6246 50.6042C74.4722 50.6042 75.1593 49.9174 75.1593 49.0696V47.0232C75.1593 46.1754 74.4721 45.4886 73.6246 45.4886C72.7772 45.4886 72.09 46.1754 72.09 47.0232V49.0696C72.09 49.9172 72.777 50.6042 73.6246 50.6042Z" fill="black"/>
<path d="M73.6246 60.8355C74.4722 60.8355 75.1593 60.1487 75.1593 59.3009V57.2545C75.1593 56.4067 74.4721 55.7199 73.6246 55.7199C72.7772 55.7199 72.09 56.4067 72.09 57.2545V59.3009C72.09 60.1485 72.777 60.8355 73.6246 60.8355Z" fill="black"/>
<path d="M73.6246 71.0668C74.4722 71.0668 75.1593 70.38 75.1593 69.5322V67.4858C75.1593 66.638 74.4721 65.9512 73.6246 65.9512C72.7772 65.9512 72.09 66.638 72.09 67.4858V69.5322C72.09 70.3798 72.777 71.0668 73.6246 71.0668Z" fill="black"/>
<path d="M73.6246 81.2981C74.4722 81.2981 75.1593 80.6113 75.1593 79.7635V77.7172C75.1593 76.8693 74.4721 76.1825 73.6246 76.1825C72.7772 76.1825 72.09 76.8693 72.09 77.7172V79.7635C72.09 80.6111 72.777 81.2981 73.6246 81.2981Z" fill="black"/>
<path d="M46.5115 24.5142C46.5115 23.6664 45.8243 22.9796 44.9768 22.9796H32.6992C31.8516 22.9796 31.1645 23.6664 31.1645 24.5142C31.1645 25.3621 31.8517 26.0489 32.6992 26.0489H44.9768C45.8245 26.0489 46.5115 25.3621 46.5115 24.5142Z" fill="black"/>
</g>
<defs>
<clipPath id="clip0">
<rect width="91.0588" height="91.0588" fill="white" transform="translate(0.470589 0.470642)"/>
</clipPath>
</defs>
</svg>
