<svg width="92" height="92" viewBox="0 0 92 92" fill="none" xmlns="http://www.w3.org/2000/svg">
<g clip-path="url(#clip0)">
<path d="M85.7846 88.5787H83.2268V8.26263C83.2268 7.41483 82.5396 6.72797 81.6921 6.72797H53.0444C52.1967 6.72797 51.5097 7.41483 51.5097 8.26263V14.913H48.4404V8.26263C48.4404 7.41483 47.7532 6.72797 46.9057 6.72797H40.2552V2.12381C40.2552 1.276 39.568 0.589149 38.7206 0.589149C37.8731 0.589149 37.1859 1.276 37.1859 2.12381V6.72797H30.5356C29.6879 6.72797 29.0009 7.41483 29.0009 8.26263V14.913H24.3967C23.5491 14.913 22.8621 15.5998 22.8621 16.4476V29.2368H10.0729C9.22531 29.2368 8.53828 29.9236 8.53828 30.7714V88.5785H5.9801C5.13247 88.5785 4.44543 89.2653 4.44543 90.1131C4.44543 90.9609 5.13264 91.648 5.9801 91.648H85.7846C86.6323 91.648 87.3193 90.9611 87.3193 90.1133C87.3193 89.2655 86.6321 88.5787 85.7846 88.5787ZM32.0701 9.7973H45.3707V14.913H32.0701V9.7973ZM26.9544 88.5787H25.9312V86.0208C25.9312 85.173 25.244 84.4862 24.3966 84.4862C23.5491 84.4862 22.8619 85.173 22.8619 86.0208V88.5787H21.8387V83.463H26.9544V88.5787ZM37.1857 49.1879V51.8281V88.5787H30.0237V81.9283C30.0237 81.0805 29.3365 80.3937 28.4891 80.3937H20.3041C19.4564 80.3937 18.7694 81.0805 18.7694 81.9283V88.5787H11.6074V32.3063H37.1857V49.1879ZM38.7204 29.2369H25.9312V17.9825H51.5095V47.6532H40.2552V42.5376H44.8594C45.707 42.5376 46.394 41.8507 46.394 41.0029C46.394 40.1551 45.7068 39.4682 44.8594 39.4682H40.2552V34.3526H44.8594C45.707 34.3526 46.394 33.6657 46.394 32.8179C46.394 31.9701 45.7068 31.2833 44.8594 31.2833H40.2552V30.7718C40.2552 29.9238 39.568 29.2369 38.7204 29.2369ZM65.8335 88.5787H40.2552V51.8281V50.7227H65.8335V88.5787ZM80.1573 88.5787H68.9028V49.1879V47.1416C68.9028 46.2937 68.2156 45.6069 67.3682 45.6069C66.5207 45.6069 65.8335 46.2937 65.8335 47.1416V47.653H62.7642V47.1416C62.7642 46.2937 62.077 45.6069 61.2295 45.6069C60.3821 45.6069 59.6949 46.2937 59.6949 47.1416V47.653H54.5792V16.4478V9.7973H80.1575V88.5787H80.1573Z" fill="white"/>
<path d="M46.9055 85.5095C47.7531 85.5095 48.4402 84.8223 48.4402 83.9748V55.3272C48.4402 54.4794 47.753 53.7926 46.9055 53.7926C46.0581 53.7926 45.3708 54.4794 45.3708 55.3272V83.975C45.3708 84.8225 46.0579 85.5095 46.9055 85.5095Z" fill="white"/>
<path d="M53.0444 85.5095C53.892 85.5095 54.579 84.8223 54.579 83.9748V55.3272C54.579 54.4794 53.8918 53.7926 53.0444 53.7926C52.1969 53.7926 51.5097 54.4794 51.5097 55.3272V83.975C51.5095 84.8225 52.1967 85.5095 53.0444 85.5095Z" fill="white"/>
<path d="M59.183 85.5095C60.0306 85.5095 60.7176 84.8223 60.7176 83.9748V55.3272C60.7176 54.4794 60.0304 53.7926 59.183 53.7926C58.3355 53.7926 57.6483 54.4794 57.6483 55.3272V83.975C57.6483 84.8225 58.3355 85.5095 59.183 85.5095Z" fill="white"/>
<path d="M61.2293 20.0286C62.0769 20.0286 62.764 19.3417 62.764 18.4939V16.4478C62.764 15.6 62.0768 14.9131 61.2293 14.9131C60.3819 14.9131 59.6946 15.6 59.6946 16.4478V18.4941C59.6946 19.3417 60.3817 20.0286 61.2293 20.0286Z" fill="white"/>
<path d="M67.3682 20.0286C68.2158 20.0286 68.9028 19.3417 68.9028 18.4939V16.4478C68.9028 15.6 68.2156 14.9131 67.3682 14.9131C66.5207 14.9131 65.8335 15.6 65.8335 16.4478V18.4941C65.8335 19.3417 66.5205 20.0286 67.3682 20.0286Z" fill="white"/>
<path d="M73.507 20.0286C74.3546 20.0286 75.0416 19.3417 75.0416 18.4939V16.4478C75.0416 15.6 74.3544 14.9131 73.507 14.9131C72.6595 14.9131 71.9723 15.6 71.9723 16.4478V18.4941C71.9723 19.3417 72.6593 20.0286 73.507 20.0286Z" fill="white"/>
<path d="M61.2293 30.2599C62.0769 30.2599 62.764 29.573 62.764 28.7252V26.6789C62.764 25.8311 62.0768 25.1442 61.2293 25.1442C60.3819 25.1442 59.6946 25.8311 59.6946 26.6789V28.7252C59.6946 29.573 60.3817 30.2599 61.2293 30.2599Z" fill="white"/>
<path d="M67.3682 30.2599C68.2158 30.2599 68.9028 29.573 68.9028 28.7252V26.6789C68.9028 25.8311 68.2156 25.1442 67.3682 25.1442C66.5207 25.1442 65.8335 25.8311 65.8335 26.6789V28.7252C65.8335 29.573 66.5205 30.2599 67.3682 30.2599Z" fill="white"/>
<path d="M73.507 30.2599C74.3546 30.2599 75.0416 29.573 75.0416 28.7252V26.6789C75.0416 25.8311 74.3544 25.1442 73.507 25.1442C72.6595 25.1442 71.9723 25.8311 71.9723 26.6789V28.7252C71.9723 29.573 72.6593 30.2599 73.507 30.2599Z" fill="white"/>
<path d="M61.2293 40.4914C62.0769 40.4914 62.764 39.8045 62.764 38.9567V36.9104C62.764 36.0626 62.0768 35.3757 61.2293 35.3757C60.3819 35.3757 59.6946 36.0626 59.6946 36.9104V38.9567C59.6946 39.8044 60.3817 40.4914 61.2293 40.4914Z" fill="white"/>
<path d="M67.3682 40.4914C68.2158 40.4914 68.9028 39.8045 68.9028 38.9567V36.9104C68.9028 36.0626 68.2156 35.3757 67.3682 35.3757C66.5207 35.3757 65.8335 36.0626 65.8335 36.9104V38.9567C65.8335 39.8044 66.5205 40.4914 67.3682 40.4914Z" fill="white"/>
<path d="M73.507 40.4914C74.3546 40.4914 75.0416 39.8045 75.0416 38.9567V36.9104C75.0416 36.0626 74.3544 35.3757 73.507 35.3757C72.6595 35.3757 71.9723 36.0626 71.9723 36.9104V38.9567C71.9723 39.8044 72.6593 40.4914 73.507 40.4914Z" fill="white"/>
<path d="M18.2577 44.5839C19.1054 44.5839 19.7924 43.897 19.7924 43.0492V41.0029C19.7924 40.1551 19.1052 39.4682 18.2577 39.4682C17.4103 39.4682 16.7231 40.1551 16.7231 41.0029V43.0492C16.7231 43.8969 17.4103 44.5839 18.2577 44.5839Z" fill="white"/>
<path d="M24.3966 44.5839C25.2442 44.5839 25.9312 43.897 25.9312 43.0492V41.0029C25.9312 40.1551 25.244 39.4682 24.3966 39.4682C23.5491 39.4682 22.8619 40.1551 22.8619 41.0029V43.0492C22.8619 43.8969 23.5489 44.5839 24.3966 44.5839Z" fill="white"/>
<path d="M30.5354 44.5839C31.383 44.5839 32.0701 43.897 32.0701 43.0492V41.0029C32.0701 40.1551 31.3828 39.4682 30.5354 39.4682C29.6879 39.4682 29.0007 40.1551 29.0007 41.0029V43.0492C29.0007 43.8969 29.6878 44.5839 30.5354 44.5839Z" fill="white"/>
<path d="M18.2577 54.8152C19.1054 54.8152 19.7924 54.1284 19.7924 53.2805V51.2342C19.7924 50.3864 19.1052 49.6996 18.2577 49.6996C17.4103 49.6996 16.7231 50.3864 16.7231 51.2342V53.2805C16.7231 54.1282 17.4103 54.8152 18.2577 54.8152Z" fill="white"/>
<path d="M24.3966 54.8152C25.2442 54.8152 25.9312 54.1284 25.9312 53.2805V51.2342C25.9312 50.3864 25.244 49.6996 24.3966 49.6996C23.5491 49.6996 22.8619 50.3864 22.8619 51.2342V53.2805C22.8619 54.1282 23.5489 54.8152 24.3966 54.8152Z" fill="white"/>
<path d="M30.5354 54.8152C31.383 54.8152 32.0701 54.1284 32.0701 53.2805V51.2342C32.0701 50.3864 31.3828 49.6996 30.5354 49.6996C29.6879 49.6996 29.0007 50.3864 29.0007 51.2342V53.2805C29.0007 54.1282 29.6878 54.8152 30.5354 54.8152Z" fill="white"/>
<path d="M18.2577 65.0465C19.1054 65.0465 19.7924 64.3597 19.7924 63.5119V61.4655C19.7924 60.6177 19.1052 59.9309 18.2577 59.9309C17.4103 59.9309 16.7231 60.6177 16.7231 61.4655V63.5119C16.7231 64.3597 17.4103 65.0465 18.2577 65.0465Z" fill="white"/>
<path d="M24.3966 65.0465C25.2442 65.0465 25.9312 64.3597 25.9312 63.5119V61.4655C25.9312 60.6177 25.244 59.9309 24.3966 59.9309C23.5491 59.9309 22.8619 60.6177 22.8619 61.4655V63.5119C22.8619 64.3597 23.5489 65.0465 24.3966 65.0465Z" fill="white"/>
<path d="M30.5354 65.0465C31.383 65.0465 32.0701 64.3597 32.0701 63.5119V61.4655C32.0701 60.6177 31.3828 59.9309 30.5354 59.9309C29.6879 59.9309 29.0007 60.6177 29.0007 61.4655V63.5119C29.0007 64.3597 29.6878 65.0465 30.5354 65.0465Z" fill="white"/>
<path d="M18.2577 75.2778C19.1054 75.2778 19.7924 74.591 19.7924 73.7432V71.6968C19.7924 70.849 19.1052 70.1622 18.2577 70.1622C17.4103 70.1622 16.7231 70.849 16.7231 71.6968V73.7432C16.7231 74.591 17.4103 75.2778 18.2577 75.2778Z" fill="white"/>
<path d="M24.3966 75.2778C25.2442 75.2778 25.9312 74.591 25.9312 73.7432V71.6968C25.9312 70.849 25.244 70.1622 24.3966 70.1622C23.5491 70.1622 22.8619 70.849 22.8619 71.6968V73.7432C22.8619 74.591 23.5489 75.2778 24.3966 75.2778Z" fill="white"/>
<path d="M30.5354 75.2778C31.383 75.2778 32.0701 74.591 32.0701 73.7432V71.6968C32.0701 70.849 31.3828 70.1622 30.5354 70.1622C29.6879 70.1622 29.0007 70.849 29.0007 71.6968V73.7432C29.0007 74.591 29.6878 75.2778 30.5354 75.2778Z" fill="white"/>
<path d="M73.507 50.7227C74.3546 50.7227 75.0416 50.0359 75.0416 49.1881V47.1417C75.0416 46.2939 74.3544 45.6071 73.507 45.6071C72.6595 45.6071 71.9723 46.2939 71.9723 47.1417V49.1881C71.9723 50.0357 72.6593 50.7227 73.507 50.7227Z" fill="white"/>
<path d="M73.507 60.954C74.3546 60.954 75.0416 60.2672 75.0416 59.4194V57.373C75.0416 56.5252 74.3544 55.8384 73.507 55.8384C72.6595 55.8384 71.9723 56.5252 71.9723 57.373V59.4194C71.9723 60.267 72.6593 60.954 73.507 60.954Z" fill="white"/>
<path d="M73.507 71.1853C74.3546 71.1853 75.0416 70.4985 75.0416 69.6507V67.6044C75.0416 66.7565 74.3544 66.0697 73.507 66.0697C72.6595 66.0697 71.9723 66.7565 71.9723 67.6044V69.6507C71.9723 70.4983 72.6593 71.1853 73.507 71.1853Z" fill="white"/>
<path d="M73.507 81.4167C74.3546 81.4167 75.0416 80.7298 75.0416 79.882V77.8357C75.0416 76.9879 74.3544 76.301 73.507 76.301C72.6595 76.301 71.9723 76.9879 71.9723 77.8357V79.882C71.9723 80.7296 72.6593 81.4167 73.507 81.4167Z" fill="white"/>
<path d="M46.3938 24.6328C46.3938 23.7849 45.7066 23.0981 44.8592 23.0981H32.5815C31.7339 23.0981 31.0469 23.7849 31.0469 24.6328C31.0469 25.4806 31.7341 26.1674 32.5815 26.1674H44.8592C45.7068 26.1674 46.3938 25.4806 46.3938 24.6328Z" fill="white"/>
</g>
<defs>
<clipPath id="clip0">
<rect width="91.0588" height="91.0588" fill="white" transform="translate(0.352936 0.589149)"/>
</clipPath>
</defs>
</svg>
